# xmcd
#
# Track frame offsets: 
#        150
#        25062
#        46762
#        68700
#        84362
#        107012
#        125150
#        145450
#        166187
#        188700
#        212300
#        233500
#        256175
#        278587
#
# Disc length: 4006 seconds
#
# Revision: 2
# Processed by: cddbd v1.4PL0 Copyright (c) Steve Scherf et al.
# Submitted via: ExactAudioCopy v0.90b4
#
DISCID=b00fa40e
DTITLE=Boyz II Men - Evolution
DYEAR=1997
DGENRE=R&B
TTITLE0=Doin' Just Fine
TTITLE1=Never
TTITLE2=4 Seasons Of Loneliness
TTITLE3=Girl In The Life Magazine
TTITLE4=A Song For Mama
TTITLE5=Can You Stand The Rain
TTITLE6=Can't Let Her Go
TTITLE7=Baby C'mon
TTITLE8=Come On
TTITLE9=All Night Long
TTITLE10=Human II (Don't Turn Your Back On Me)
TTITLE11=To The Limit
TTITLE12=Dear God
TTITLE13=Just Hold On (Bonus Track)
EXTD=
EXTT0=
EXTT1=
EXTT2=
EXTT3=
EXTT4=
EXTT5=
EXTT6=
EXTT7=
EXTT8=
EXTT9=
EXTT10=
EXTT11=
EXTT12=
EXTT13=
PLAYORDER=
